<svg xmlns="http://www.w3.org/2000/svg" width="512" height="512" viewBox="0 0 512 512" version="1.1">
	<path d="M 274.998 41.805 C 272.524 44.447, 265.175 54.617, 258.666 64.405 L 246.831 82.202 242.666 81.644 C 240.375 81.337, 234.900 80.813, 230.500 80.479 C 226.100 80.146, 212.150 78.812, 199.500 77.517 C 186.850 76.221, 164.350 73.922, 149.500 72.408 C 134.650 70.894, 121.271 69.965, 119.768 70.342 C 115.875 71.321, 110.294 76.545, 109.131 80.300 C 108.045 83.803, 105.591 105.354, 104.040 125 C 103.497 131.875, 101.916 148.075, 100.527 161 C 99.137 173.925, 98.001 184.838, 98 185.250 C 98 185.662, 92.811 186, 86.468 186 C 66.951 186, 61.049 190.402, 60.394 205.449 C 60.097 212.260, 60.016 212.448, 56.648 214.176 C 51.902 216.611, 46.466 223.246, 45.083 228.292 C 44.235 231.385, 44.005 262.460, 44.215 345.579 L 44.500 458.657 47.536 463.579 C 49.581 466.895, 52.340 469.560, 55.992 471.750 L 61.412 475 245.500 475 L 429.588 475 435.008 471.750 C 438.521 469.644, 441.393 466.916, 443.170 464 L 445.911 459.500 446.608 422.750 L 447.305 386 454.218 386 C 460.891 386, 464.048 385.095, 466.729 382.413 C 467.712 381.431, 468 372.558, 468 343.246 L 468 305.349 465.424 302.928 C 463.247 300.884, 461.640 300.453, 455.076 300.155 L 447.305 299.802 446.590 263.671 C 445.798 223.654, 445.893 224.231, 438.967 217.468 C 435.050 213.643, 435 213.501, 435 206.183 C 435 197.417, 432.925 192.850, 427.204 189.023 C 424.091 186.941, 421.939 186.462, 413.718 186.023 L 403.936 185.500 417.443 165.500 C 429.885 147.078, 430.953 145.137, 430.975 140.898 C 430.992 137.734, 430.297 135.269, 428.750 133.012 C 426.529 129.770, 423.993 127.917, 392.500 106.515 C 348.652 76.718, 344.827 74.109, 328 62.520 C 323.875 59.679, 314.200 53.112, 306.500 47.927 C 298.800 42.742, 292.350 38.163, 292.167 37.750 C 291.983 37.337, 289.057 37, 285.664 37 C 279.586 37, 279.430 37.070, 274.998 41.805 M 298 83.581 C 294.975 84.878, 291.739 85.952, 290.809 85.969 C 289.879 85.986, 288.840 86.450, 288.500 87 C 288.160 87.550, 284.133 88, 279.552 88 C 273.040 88, 270.789 88.382, 269.238 89.750 C 268.148 90.713, 261.651 99.825, 254.801 110 C 234.620 139.979, 190.915 204.234, 188.359 207.683 C 187.061 209.434, 186 211.122, 186 211.433 C 186 211.745, 196.955 212, 210.344 212 L 234.688 212 235.850 203.786 C 241.115 166.554, 283.295 150.187, 312.321 174.113 C 320.575 180.917, 328 196.540, 328 207.105 L 328 212 344 212 C 354.734 212, 360 211.647, 360 210.926 C 360 210.336, 366.371 200.458, 374.159 188.975 L 388.317 168.098 385.467 161.799 C 383.028 156.410, 382.536 153.806, 382.058 143.775 C 381.584 133.814, 381.199 131.758, 379.500 130.106 C 377.621 128.279, 331.271 96.402, 315.122 85.830 C 311.064 83.174, 306.789 81.050, 305.622 81.112 C 304.455 81.173, 301.025 82.284, 298 83.581 M 155.366 100.938 C 154.192 101.440, 151.754 103.908, 149.947 106.425 C 148.140 108.941, 146.276 111, 145.806 111 C 145.335 111, 144.552 112.048, 144.065 113.329 C 143.511 114.787, 140.520 117.055, 136.070 119.394 C 132.160 121.448, 128.307 124.128, 127.507 125.350 C 126.546 126.815, 125.357 135.035, 124.008 149.535 C 122.884 161.616, 121.072 179.963, 119.982 190.307 C 118.892 200.651, 118 209.763, 118 210.557 C 118 211.769, 121.367 212, 139 212 C 157.435 212, 160 211.808, 160 210.427 C 160 209.561, 175.520 186.082, 194.489 158.249 C 213.458 130.417, 228.859 107.526, 228.714 107.381 C 228.331 106.997, 193.608 103.261, 179 102.031 C 172.125 101.452, 164.475 100.764, 162 100.503 C 159.525 100.241, 156.540 100.437, 155.366 100.938 M 372.459 325.880 C 366.040 328.795, 361.011 336.316, 361.011 343 C 361.011 349.483, 366.765 358.168, 372.702 360.649 C 376.576 362.268, 383.795 362.406, 387.685 360.936 C 396.124 357.748, 401.275 347.506, 398.910 338.615 C 395.771 326.812, 383.458 320.884, 372.459 325.880" stroke="none" fill="black" fill-rule="evenodd"/>
</svg>